<svg height="511pt" viewBox="0 -21 511.35846 511" width="511pt" xmlns="http://www.w3.org/2000/svg"><path d="m367.203125 215.152344c.414063-.195313.8125-.421875 1.191406-.679688-8.105469-6.144531-9.386719-30.808594-18.855469-44.632812-6.914062-11.101563-12.796874-22.8125-17.578124-34.984375h-.085938l-42.070312 9.386719c-6.488282-.007813-12.679688-2.730469-17.066407-7.511719-4.609375-4.605469-17.066406-11.007813-17.066406-18.089844 0 14.167969-19.96875 25.601563-34.132813 25.601563l-42.070312-9.300782c-4.875 12.117188-10.785156 23.792969-17.664062 34.898438-9.214844 14.167968-9.8125 39.339844-17.492188 45.398437-.085938.085938-.171875.171875-.257812.171875-2.304688 11.605469-6.910157 56.660156 45.738281 102.824219-2.386719 28.246094-2.730469 64 6.144531 90.539063 1.574219 4.765624 3.542969 9.390624 5.886719 13.824218 1.253906 2.570313 2.675781 5.050782 4.269531 7.425782l41.726562-17.921876 7.851563-3.328124 7.851563 3.328124 41.726562 17.921876c1.589844-2.375 3.015625-4.855469 4.265625-7.425782 2.347656-4.433594 4.316406-9.058594 5.890625-13.824218 8.871094-26.539063 8.53125-62.292969 6.140625-90.539063 52.992187-46.503906 47.957031-91.816406 45.65625-103.082031zm-188.332031 22.957031c-.027344-9.933594 5.738281-18.972656 14.761718-23.125 8.207032 1.957031 15.226563 7.242187 19.371094 14.589844 2.8125 6.769531 9.578125 11.039062 16.894532 10.667969-1.5 13.355468-13.078126 23.277343-26.507813 22.714843-13.429687-.558593-24.136719-11.414062-24.519531-24.847656zm128 25.597656c-13.3125.035157-24.398438-10.195312-25.429688-23.464843 7.320313.371093 14.082032-3.898438 16.894532-10.667969 4.148437-7.347657 11.167968-12.632813 19.371093-14.589844 10.789063 5.121094 16.605469 17.023437 14.011719 28.683594-2.59375 11.65625-12.90625 19.972656-24.847656 20.039062zm0 0" fill="#bfa885"/><path d="m332.472656 238.109375c-.382812 13.433594-11.09375 24.289063-24.523437 24.847656-13.429688.5625-25.003907-9.359375-26.507813-22.714843 7.320313.371093 14.082032-3.898438 16.894532-10.667969 4.148437-7.347657 11.167968-12.632813 19.371093-14.589844 9.023438 4.152344 14.792969 13.191406 14.765625 23.125zm0 0" fill="#9e9e9e"/><path d="m229.898438 240.242188c-.984376 12.421874-10.765626 22.328124-23.175782 23.46875-12.40625 1.140624-23.832031-6.820313-27.066406-18.851563-3.230469-12.03125 2.667969-24.644531 13.976562-29.875 8.207032 1.957031 15.226563 7.242187 19.371094 14.589844 2.8125 6.769531 9.578125 11.039062 16.894532 10.667969zm0 0" fill="#9e9e9e"/><path d="m225.121094 61.382812-5.886719-6.144531c-1.707031-1.875-3.671875-3.753906-5.632813-5.800781l-.511718-.511719c-5-5.074219-10.363282-9.78125-16.042969-14.082031-4.425781-3.402344-9.074219-6.507812-13.910156-9.300781-2.472657-1.449219-4.949219-2.816407-7.507813-4.097657-3.027344-1.523437-6.132812-2.890624-9.300781-4.09375-16.449219-6.753906-34.234375-9.617187-51.96875-8.363281-3.242187.257813-6.484375.683594-9.558594 1.195313-2.789062.484375-5.550781 1.109375-8.277343 1.875v.085937c-4.289063 1.160157-8.480469 2.640625-12.542969 4.4375-23.277344 10.625-42.324219 28.742188-54.101563 51.457031-1.363281 2.472657-2.644531 5.035157-3.925781 7.59375-1.914063 3.890626-3.625 7.878907-5.121094 11.949219-9.621093 24.398438-13.703125 50.628907-11.945312 76.796875.085937 1.367188.257812 2.816406.425781 4.183594.511719 6.3125 1.367188 12.457031 2.476562 18.6875 2.605469 20.273438 12.789063 38.808594 28.5 51.882812 12.386719 8.980469 27.203126 14.007813 42.496094 14.421876 10.507813.582031 20.929688-2.164063 29.78125-7.851563-.9375.683594-11.007812-8.023437-11.945312-8.703125-18.171875-13.476562-32.113282-31.863281-40.191406-52.992188-4.433594-12.929687-3.511719-27.09375 2.558593-39.339843 3.628907-7.125 8.789063-13.359375 15.105469-18.261719-2.816406-15.359375 23.976562 17.835938 23.976562 17.835938s42.667969-51.199219 85.335938 7.59375l.59375.171874 42.070312 9.300782c14.140626 0 25.601563-11.460938 25.601563-25.601563v-35.070312s0-6.914063-30.550781-39.253907zm0 0" fill="#607d8b"/><path d="m255.671875 133.832031v1.875c0 14.140625-11.460937 25.601563-25.601563 25.601563l-42.070312-9.300782-.59375-.171874c-42.667969-58.792969-85.335938-7.59375-85.335938-7.59375s-26.792968-33.195313-23.976562-17.835938c-6.316406 4.902344-11.476562 11.136719-15.105469 18.261719-6.070312 12.246093-6.992187 26.410156-2.558593 39.339843 8.078124 21.128907 22.019531 39.515626 40.191406 52.992188.9375.679688 11.007812 9.386719 11.945312 8.703125-8.851562 5.6875-19.273437 8.433594-29.78125 7.851563-15.292968-.414063-30.109375-5.441407-42.496094-14.421876-15.710937-13.074218-25.894531-31.609374-28.5-51.882812-1.109374-6.230469-1.964843-12.375-2.476562-18.6875 1.648438-16.378906 5.523438-32.457031 11.519531-47.789062 1.496094-4.070313 3.207031-8.054688 5.121094-11.945313 1.28125-2.558594 2.5625-5.121094 3.925781-7.59375 11.777344-22.714844 30.824219-40.832031 54.101563-51.457031 4.0625-1.796875 8.253906-3.28125 12.542969-4.4375v-.085938c2.726562-.765625 5.488281-1.390625 8.277343-1.875 3.074219-.511718 6.316407-.941406 9.558594-1.195312 17.734375-1.253906 35.519531 1.609375 51.96875 8.363281 3.167969 1.203125 6.273437 2.570313 9.300781 4.09375 2.558594 1.28125 5.035156 2.644531 7.507813 4.097656 4.835937 2.792969 9.484375 5.898438 13.910156 9.300781 5.679687 4.300782 11.042969 9.007813 16.042969 14.078126l.511718.511718c1.960938 2.050782 3.925782 3.925782 5.632813 5.804688l5.886719 6.144531c30.550781 32.339844 30.550781 39.253906 30.550781 39.253906zm0 0" fill="#cfd8dc"/><path d="m490.507812 87.582031c-1.492187-4.070312-3.203124-8.058593-5.121093-11.949219-1.277344-2.558593-2.558594-5.121093-3.921875-7.59375-11.789063-22.648437-30.753906-40.746093-53.933594-51.457031h-.085938c-4.082031-1.746093-8.269531-3.226562-12.542968-4.4375-.046875 0-.085938-.039062-.085938-.085937-2.644531-.679688-5.375-1.363282-8.191406-1.875-3.15625-.511719-6.3125-.9375-9.640625-1.195313-17.738281-1.253906-35.523437 1.609375-51.96875 8.363281-3.167969 1.203126-6.273437 2.570313-9.300781 4.09375-2.5625 1.28125-5.035156 2.648438-7.511719 4.097657-4.835937 2.792969-9.480469 5.898437-13.90625 9.300781-5.679687 4.300781-11.042969 9.007812-16.042969 14.082031l-.511718.511719c-1.964844 2.046875-3.925782 3.925781-5.632813 5.800781l-5.890625 6.144531c-30.546875 32.339844-30.546875 39.253907-30.546875 39.253907v35.070312c0 14.140625 11.460937 25.601563 25.597656 25.601563l42.070313-9.386719h.085937l.511719-.085937c51.199219-50.261719 68.265625-7.59375 68.265625-7.59375s43.863281-33.195313 41.046875-17.835938c6.316406 4.902344 11.472656 11.136719 15.105469 18.261719 6.066406 12.246093 6.988281 26.410156 2.558593 39.339843-8.078124 21.128907-22.023437 39.515626-40.191406 52.992188-.941406.679688-11.007812 9.386719-11.949218 8.703125 8.855468 5.6875 19.277343 8.433594 29.78125 7.851563 15.296874-.414063 30.109374-5.441407 42.496093-14.421876 15.714844-13.074218 25.894531-31.609374 28.503907-51.882812 1.109374-6.230469 1.960937-12.375 2.472656-18.6875v-.085938c.171875-1.367187.34375-2.730468.425781-4.097656 1.757813-26.167968-2.320313-52.398437-11.945313-76.796875zm0 0" fill="#607d8b"/><path d="m502.027344 168.476562v.085938c-.511719 6.3125-1.363282 12.457031-2.472656 18.6875-2.609376 20.273438-12.789063 38.808594-28.503907 51.882812-12.386719 8.980469-27.199219 14.007813-42.496093 14.421876-10.503907.582031-20.925782-2.164063-29.78125-7.851563.941406.683594 11.007812-8.023437 11.949218-8.703125 18.167969-13.476562 32.113282-31.863281 40.191406-52.992188 4.429688-12.929687 3.507813-27.09375-2.558593-39.339843-3.632813-7.125-8.789063-13.359375-15.105469-18.261719 2.816406-15.359375-41.046875 17.835938-41.046875 17.835938s-17.066406-42.667969-68.265625 7.59375l-.511719.085937h-.085937l-42.070313 9.386719c-14.136719 0-25.597656-11.460938-25.597656-25.601563v-1.875s0-6.914062 30.546875-39.253906l5.890625-6.144531c1.707031-1.878906 3.667969-3.753906 5.632813-5.804688l.511718-.511718c5-5.070313 10.363282-9.777344 16.042969-14.078126 4.425781-3.402343 9.070313-6.507812 13.90625-9.300781 2.476563-1.453125 4.949219-2.816406 7.511719-4.097656 3.027344-1.523437 6.132812-2.890625 9.300781-4.09375 16.445313-6.753906 34.230469-9.617187 51.96875-8.363281 3.328125.253906 6.484375.683594 9.640625 1.195312 2.816406.511719 5.546875 1.191406 8.191406 1.875 0 .046875.039063.085938.085938.085938 4.273437 1.210937 8.460937 2.691406 12.542968 4.4375h.085938c23.179688 10.710937 42.144531 28.808594 53.933594 51.457031 1.363281 2.472656 2.644531 5.035156 3.921875 7.59375 1.917969 3.890625 3.628906 7.875 5.121093 11.945313 5.996094 15.300781 9.871094 31.351562 11.519532 47.703124zm0 0" fill="#cfd8dc"/><path d="m188 152.007812c-4.882812 11.773438-10.824219 23.085938-17.746094 33.789063-1.152344-1.96875-31.089844-12.40625-51.117187-33.023437-15.453125-15.90625-17.464844-41.324219-42.664063-52.136719 0 0 76.796875-25.601563 110.933594 51.199219zm0 0" fill="#795548"/><path d="m170.253906 185.796875c-6.984375 11.164063-15.746094 21.109375-25.941406 29.441406-.085938 0-.085938 0-.171875-.085937-34.34375-18.023438-58.640625-50.671875-66.046875-88.746094-1.695312-8.476562-2.238281-17.144531-1.621094-25.769531 57.855469 24.832031 91.730469 81.664062 93.78125 85.160156zm0 0" fill="#4e342e"/><path d="m434.871094 100.636719c-20.0625 8.617187-28.699219 39.398437-42.667969 52.136719-25.011719 22.828124-48.253906 28.238281-50.773437 32.511718-7.085938-10.5-13.113282-21.675781-18.003907-33.363281l.511719-.085937c34.132812-76.800782 110.933594-51.199219 110.933594-51.199219zm0 0" fill="#795548"/><path d="m433.25 126.40625c-7.3125 37.597656-31.121094 69.925781-64.855469 88.066406-10.496093-8.214844-19.601562-18.070312-26.964843-29.1875 3.925781-6.65625 37.460937-60.671875 93.441406-84.648437.617187 8.625.070312 17.292969-1.621094 25.769531zm0 0" fill="#4e342e"/><path d="m305.25 430.023438c-10.777344 17.347656-29.210938 28.484374-49.578125 29.953124-20.371094-1.46875-38.804687-12.605468-49.578125-29.953124l41.726562-17.921876 7.851563-3.328124 7.851563 3.328124zm0 0" fill="#795548"/><path d="m405.695312 230.105469c-.238281.175781-.957031.75-1.945312 1.570312-3.636719 3.011719-6.117188 4.972657-7.414062 5.851563-3.105469.933594-5.410157 3.546875-5.953126 6.742187-.542968 3.195313.773438 6.421875 3.390626 8.328125.222656.164063.445312.316406.667968.453125 9.722656 6.222657 21.070313 9.417969 32.613282 9.191407 17.667968-.199219 34.835937-5.886719 49.125-16.273438 17.5-14.308594 28.871093-34.761719 31.796874-57.175781 1.40625-7.847657 2.410157-15.761719 3.011719-23.714844 1.988281-31.613281-4.058593-63.214844-17.578125-91.859375-.28125-.921875-.722656-1.789062-1.296875-2.558594-15.558593-31.464844-40.628906-57.6875-75.589843-66.929687l-.253907-.066407c-6.09375-1.605468-12.316406-2.667968-18.59375-3.183593-22.078125-1.46875-44.152343 2.90625-64 12.679687-.453125.167969-.886719.371094-1.308593.605469-8.175782 3.988281-15.945313 8.765625-23.191407 14.269531-6.1875 4.71875-12.03125 9.871094-17.492187 15.410156-12.917969 12.644532-24.949219 26.15625-36.011719 40.449219-11.074219-14.304687-23.113281-27.832031-36.035156-40.492187-5.4375-5.519532-11.253907-10.652344-17.410157-15.359375-6.753906-5.148438-13.96875-9.671875-21.546874-13.507813-.910157-.660156-1.9375-1.136718-3.027344-1.398437-19.859375-9.75-41.925782-14.125-64-12.691407-6.285156.503907-12.511719 1.570313-18.605469 3.183594-.101563 0-.1875.050782-.289063.078125-34.988281 9.25-60.015624 35.464844-75.5625 66.882813-.574218.773437-1.015624 1.640625-1.296874 2.558594-13.503907 28.660156-19.53125 60.273437-17.519532 91.890624.601563 7.953126 1.605469 15.871094 3.011719 23.722657 2.925781 22.410156 14.296875 42.863281 31.796875 57.171875 14.289062 10.402344 31.460938 16.101562 49.132812 16.308594 11.542969.226562 22.890626-2.972657 32.617188-9.191407.210938-.136719.433594-.289062.65625-.453125 2.621094-1.90625 3.933594-5.132812 3.390625-8.328125-.542969-3.195312-2.847656-5.808593-5.953125-6.742187-1.296875-.851563-3.777344-2.839844-7.414062-5.851563-.957032-.796875-1.65625-1.359375-1.707032-1.359375-26.367187-20.957031-49.492187-53.460937-35.328125-81.792968.941407-1.820313 2.007813-3.574219 3.191407-5.246094 10.304687 32.054687 32.03125 59.203125 61.046874 76.28125-2.082031 18.300781-.066406 59.5 46.167969 102.097656-3.488281 30.101562-1.171875 60.589844 6.824219 89.816406 18.824219 56.386719 65.871094 57.035156 67.859375 57.035156s49.03125-.648437 67.820313-57.027343c8.003906-29.21875 10.320312-59.703125 6.828124-89.796875 46.285157-42.417969 48.257813-83.773438 46.164063-102.125 29.023437-17.078125 50.75-44.230469 61.050781-76.289063 1.175782 1.664063 2.234375 3.40625 3.171875 5.214844 14.199219 28.371094-8.925781 60.875-35.011719 81.621094zm-150.023437 221.335937c-13.867187-1.097656-26.773437-7.519531-36.011719-17.921875l36.011719-15.460937 36.011719 15.460937c-9.242188 10.398438-22.144532 16.820313-36.011719 17.921875zm200.292969-310.613281c-3.457032-6.753906-8.113282-12.828125-13.738282-17.921875 1.238282-7.675781 1.617188-15.464844 1.125-23.226562-.09375-.820313-.304687-1.625-.628906-2.386719l-.078125-.113281c-.402343-.867188-.949219-1.660157-1.621093-2.347657-.199219-.207031-.410157-.40625-.632813-.585937-.578125-.503906-1.226563-.921875-1.917969-1.246094-.214844-.09375-.394531-.222656-.613281-.308594-.09375 0-.179687-.101562-.285156-.136718-.851563-.28125-84.582031-27.09375-121.425781 55.824218-1.917969 4.308594.019531 9.355469 4.328124 11.269532 4.308594 1.914062 9.351563-.023438 11.269532-4.332032 19.363281-43.570312 53.488281-50.953125 76.542968-50.300781-30.328124 19.660156-55.851562 45.886719-74.683593 76.738281-2.292969 4.085938-.863281 9.257813 3.203125 11.585938 4.070312 2.324218 9.253906.9375 11.609375-3.113282 19.332031-31.261718 46.035156-57.308593 77.773437-75.851562-1.902344 22.289062-13.191406 68.734375-71.933594 98.132812-3.863281 1.933594-5.675781 6.449219-4.214843 10.515626 1.460937 4.066406 5.730469 6.398437 9.941406 5.433593.246094 17.917969-5.898437 49.910157-44.433594 83.730469-1.757812 1.527344-3.585937 3.121094-5.480469 4.632812-1.765624 1.414063-2.902343 3.472657-3.152343 5.722657s.40625 4.507812 1.820312 6.273437c1.316407 1.5625 3.160157 2.582032 5.179688 2.867188 2.261719 25.007812.023437 50.21875-6.613281 74.4375-1.503907 4.527344-3.390626 8.921875-5.628907 13.132812l-37.472656-16.101562v-28.511719h8.535156c4.710938 0 8.53125 3.820313 8.53125 8.535156 0 4.710938 3.820313 8.53125 8.535157 8.53125 4.710937 0 8.53125-3.820312 8.53125-8.53125 0-14.140625-11.460938-25.601562-25.597657-25.601562h-34.132812c-14.140625 0-25.601563 11.460937-25.601563 25.601562 0 4.710938 3.820313 8.53125 8.535156 8.53125 4.710938 0 8.53125-3.820312 8.53125-8.53125 0-4.714843 3.820313-8.535156 8.535157-8.535156h8.53125v28.511719l-37.46875 16.058594c-2.238281-4.21875-4.125-8.613282-5.640625-13.140626-6.625-24.214843-8.863282-49.421874-6.605469-74.429687 2.019531-.285156 3.863281-1.304687 5.179687-2.867187 1.414063-1.765626 2.070313-4.023438 1.820313-6.273438s-1.382813-4.308594-3.152344-5.722656c-1.894531-1.511719-3.71875-3.105469-5.851562-4.949219-38.238281-33.570313-44.324219-65.527344-44.058594-83.414063 4.167969.878907 8.347656-1.449218 9.789063-5.460937 1.445312-4.007813-.289063-8.464844-4.0625-10.445313-51.199219-25.601562-66.414063-63.632812-70.714844-87.894531 0-.167969-.042969-.332031-.085938-.5-.625-3.621093-1.035156-6.914062-1.253906-9.816406 31.796875 18.550781 58.550781 44.628906 77.898438 75.949219 2.359374 4.046875 7.542968 5.4375 11.609374 3.109375 4.070313-2.328125 5.5-7.5 3.207032-11.585938-18.828125-30.867187-44.351563-57.105469-74.683594-76.78125 23.039062-.648437 57.171875 6.742188 76.542969 50.347657 1.238281 2.785156 3.871093 4.699218 6.902343 5.019531 3.035157.320312 6.007813-1.003907 7.800782-3.46875 1.792968-2.46875 2.132812-5.703125.894531-8.488281-36.8125-82.945313-120.574219-56.125-121.429687-55.859376-.09375 0-.167969.09375-.253907.125-.25.097657-.460937.242188-.699219.351563-.664062.3125-1.28125.710937-1.835937 1.1875-.238281.203125-.460937.398437-.675781.621094-.660156.683593-1.203125 1.476562-1.601563 2.339843l-.078125.109376c-.324218.761718-.535156 1.566406-.632812 2.390624-.492188 7.765626-.117188 15.5625 1.121094 23.242188-5.632813 5.097656-10.296876 11.167969-13.765626 17.921875-23.59375 47.199219 24.617188 90.640625 40.105469 102.945313l.136719.121093c-17.625 3.273438-35.820312-.9375-50.21875-11.625-13.875-11.855469-22.863281-28.433593-25.222656-46.53125-1.304688-7.292969-2.234375-14.644531-2.792969-22.03125-1.394531-21.683593 1.40625-43.429687 8.246094-64.050781 2.578125 6.066406 6.183593 11.644531 10.664062 16.484375 2.144531 2.21875 5.316407 3.109375 8.300781 2.328125 2.984376-.78125 5.3125-3.113281 6.09375-6.09375.78125-2.984375-.109374-6.15625-2.328124-8.300781-6.378907-8.085938-10.882813-17.488281-13.191407-27.527344 9.527344-20.0625 24.800781-36.839844 43.886719-48.195313-4.386719 13.148438-5.210938 27.226563-2.390625 40.796876.8125 3.972656 4.308594 6.828124 8.363281 6.828124.574219.003907 1.144532-.054687 1.707032-.171874 2.21875-.453126 4.164062-1.769532 5.414062-3.65625 1.25-1.886719 1.695312-4.195313 1.242188-6.414063-3.308594-15.933594-.246094-32.53125 8.53125-46.234375 4.339843-1 8.746093-1.6875 13.1875-2.046875 14.84375-1.011719 29.730468 1.117187 43.699218 6.246094-11.710937 11.300781-19.554687 26.011719-22.410156 42.035156-.453125 2.21875-.007812 4.527344 1.242188 6.414063 1.25 1.886718 3.195312 3.203124 5.414062 3.65625.5625.117187 1.132812.171874 1.707031.171874 4.050781-.003906 7.542969-2.859374 8.355469-6.828124 2.496094-15.054688 10.707031-28.566407 22.917969-37.71875 5.554687 3 10.871093 6.425781 15.898437 10.242187 4.832032 3.714844 9.429688 7.726563 13.765625 12.015625-9.054687 7.296875-15.398437 17.417969-18.015625 28.746094-.550781 2.195312-.210937 4.519531.953125 6.464844 1.160157 1.941406 3.046875 3.34375 5.242188 3.894531.683593.167969 1.378906.25 2.082031.25 3.910156-.003907 7.316406-2.664063 8.269531-6.453125 1.875-8.273438 6.738281-15.566406 13.652344-20.480469 23.039063 24.339844 28.289063 33.65625 29.3125 35.839844v33.757812c0 9.425781-7.640625 17.066407-17.066406 17.066407-4.714844 0-8.535157 3.820312-8.535157 8.535156 0 4.710937 3.820313 8.53125 8.535157 8.53125 9.839843-.03125 19.179687-4.332032 25.601562-11.792969 6.410157 7.449219 15.734375 11.753906 25.5625 11.792969 4.714844 0 8.535157-3.820313 8.535157-8.53125 0-4.714844-3.820313-8.535156-8.535157-8.535156-9.425781 0-17.066406-7.640626-17.066406-17.066407v-33.78125c1.042969-2.238281 6.300781-11.5625 29.3125-35.839843 6.902344 4.917968 11.75 12.210937 13.613281 20.480468.941406 3.800782 4.355469 6.472656 8.277344 6.476563.703125-.003907 1.40625-.089844 2.089844-.257813 2.195312-.550781 4.082031-1.953125 5.242187-3.894531 1.164063-1.945313 1.503907-4.269531.953125-6.464844-2.617187-11.324219-8.957031-21.445312-18.007812-28.738281 4.34375-4.308594 8.949218-8.335938 13.800781-12.058594 5.011719-3.8125 10.3125-7.234375 15.84375-10.242187 12.21875 9.164062 20.429687 22.691406 22.914063 37.761719.8125 3.972656 4.304687 6.828124 8.363281 6.828124.570312 0 1.144531-.054687 1.707031-.171874 2.214844-.453126 4.164062-1.769532 5.414062-3.65625 1.246094-1.886719 1.695313-4.195313 1.242188-6.414063-2.847656-16.023437-10.6875-30.738281-22.394531-42.042969 13.976562-5.144531 28.882812-7.265625 43.734375-6.222656 4.433594.355469 8.835937 1.039062 13.167968 2.039062 8.777344 13.703126 11.839844 30.300782 8.53125 46.234376-.9375 4.605468 2.023438 9.105468 6.625 10.0625.558594.117187 1.132813.175781 1.703126.171874 4.054687-.003906 7.546874-2.859374 8.355468-6.828124 2.824219-13.574219 2.003906-27.652344-2.378906-40.808594 19.0625 11.371094 34.320312 28.148437 43.835938 48.207031-2.308594 10.039063-6.816407 19.441406-13.195313 27.527344-2.21875 2.144531-3.105469 5.316406-2.324219 8.300781.777344 2.980469 3.109375 5.3125 6.09375 6.09375s6.15625-.109375 8.296875-2.328125c4.480469-4.835937 8.089844-10.414063 10.667969-16.484375 6.839844 20.625 9.636719 42.378906 8.242188 64.066406-.558594 7.382813-1.488282 14.730469-2.789063 22.015625-2.351563 18.105469-11.332031 34.695313-25.207031 46.558594-14.394532 10.6875-32.585938 14.902344-50.210938 11.621094l.289063-.238281c15.359375-12.183594 63.574219-55.628907 39.953125-102.851563zm0 0"/><path d="m242.417969 245.789062c4.21875-2.109374 5.929687-7.234374 3.824219-11.453124-2.105469-4.21875-7.234376-5.929688-11.453126-3.824219-1.304687.65625-2.707031 1.085937-4.15625 1.28125h-.066406c-.152344 0-.28125.058593-.425781.050781-4.160156.347656-8.039063-2.113281-9.5-6.023438-10.777344-21.597656-40.507813-21.84375-41.769531-21.84375-4.007813.039063-7.445313 2.863282-8.265625 6.785157-.820313 3.921875 1.199219 7.886719 4.851562 9.527343-6.960937 11.300782-6.726562 25.617188.605469 36.683594 7.328125 11.066406 20.417969 16.863282 33.539062 14.863282 13.121094-2.003907 23.882813-11.449219 27.578126-24.195313 1.800781-.449219 3.554687-1.066406 5.238281-1.851563zm-37.945313 9.386719c-9.425781 0-17.066406-7.640625-17.066406-17.066406.042969-5.5 2.769531-10.632813 7.300781-13.75 4.523438 1.636719 8.304688 4.839844 10.660157 9.03125 2.757812 6.011719 7.644531 10.792969 13.714843 13.421875-3.027343 5.199219-8.597656 8.386719-14.609375 8.363281zm0 0"/><path d="m290.65625 225.761719c-1.402344 3.785156-5.085938 6.234375-9.121094 6.066406-.144531 0-.273437-.050781-.410156-.050781-1.601562-.167969-3.164062-.609375-4.617188-1.304688-4.214843-2.109375-9.34375-.398437-11.449218 3.820313-2.109375 4.21875-.394532 9.347656 3.820312 11.453125 1.695313.800781 3.460938 1.433594 5.273438 1.894531 3.6875 12.761719 14.453125 22.222656 27.582031 24.230469 13.132813 2.011718 26.234375-3.792969 33.570313-14.871094 7.332031-11.078125 7.558593-25.40625.578124-36.710938 3.65625-1.640624 5.675782-5.605468 4.855469-9.527343-.820312-3.921875-4.261719-6.746094-8.265625-6.785157-1.265625 0-30.996094.246094-41.816406 21.785157zm15.277344 7.628906c2.367187-4.191406 6.160156-7.386719 10.691406-9.011719 4.527344 3.113282 7.257812 8.234375 7.3125 13.730469 0 9.425781-7.640625 17.066406-17.066406 17.066406-6.015625.023438-11.582032-3.164062-14.609375-8.363281 6.085937-2.621094 10.988281-7.402344 13.757812-13.421875zm0 0"/><path d="m238.605469 280.773438c-4.714844 0-8.535157 3.820312-8.535157 8.535156v17.066406c0 4.710938 3.820313 8.53125 8.535157 8.53125 4.710937 0 8.53125-3.820312 8.53125-8.53125v-17.066406c0-4.714844-3.820313-8.535156-8.53125-8.535156zm0 0"/><path d="m235.363281 324.125c-1.046875.410156-2 1.019531-2.816406 1.792969-1.558594 1.632812-2.441406 3.796875-2.476563 6.058593.015626 1.113282.246094 2.214844.683594 3.242188.433594 1.03125 1.039063 1.984375 1.792969 2.816406.816406.769532 1.769531 1.378906 2.816406 1.789063 1.023438.4375 2.125.671875 3.242188.683593 2.257812-.03125 4.421875-.917968 6.058593-2.472656.753907-.832031 1.359376-1.785156 1.789063-2.816406.4375-1.027344.671875-2.128906.683594-3.242188-.03125-2.261718-.914063-4.425781-2.472657-6.058593-2.453124-2.421875-6.125-3.128907-9.300781-1.792969zm0 0"/><path d="m272.738281 280.773438c-4.714843 0-8.535156 3.820312-8.535156 8.535156v17.066406c0 4.710938 3.820313 8.53125 8.535156 8.53125 4.710938 0 8.53125-3.820312 8.53125-8.53125v-17.066406c0-4.714844-3.820312-8.535156-8.53125-8.535156zm0 0"/><path d="m269.496094 324.125c-1.046875.410156-2 1.019531-2.816406 1.792969-1.558594 1.632812-2.441407 3.796875-2.476563 6.058593.015625 1.113282.246094 2.214844.683594 3.242188.433593 1.03125 1.039062 1.984375 1.792969 2.816406.816406.769532 1.769531 1.378906 2.816406 1.789063 1.023437.4375 2.125.671875 3.242187.683593 2.257813-.03125 4.421875-.917968 6.058594-2.472656.753906-.832031 1.359375-1.785156 1.792969-2.816406.4375-1.027344.667968-2.128906.679687-3.242188-.03125-2.261718-.914062-4.425781-2.472656-6.058593-2.453125-2.421875-6.125-3.128907-9.300781-1.792969zm0 0"/></svg>