<svg id="Capa_1" enable-background="new 0 0 511.996 511.996" height="512" viewBox="0 0 511.996 511.996" width="512" xmlns="http://www.w3.org/2000/svg"><g><g><path d="m209.486 124.148-35.848 22.47-24.032 15.06c0-67.31-42.887-111.128-74.81-134.429-7.901-5.768-4.666-17.213 3.485-19.386 1.412-.38 2.974-.481 4.646-.22 95.898 14.789 126.559 116.505 126.559 116.505z" fill="#f9f6f9"/><path d="m173.638 146.618-24.032 15.06c0-67.31-42.887-111.128-74.81-134.429-7.901-5.768-4.666-17.213 3.485-19.386 32.483 13.648 80.517 48.815 95.357 138.755z" fill="#e2dfe2"/><path d="m430.01 27.249c-31.922 23.301-74.81 67.119-74.81 134.429l-30.531-19.136-29.349-18.394s30.661-101.716 126.559-116.505c4.376-.681 7.971 1.082 10.194 3.885 3.545 4.456 3.635 11.565-2.063 15.721z" fill="#f9f6f9"/><path d="m432.073 11.528c-28.748 10.714-89.039 43.218-107.403 131.015l-29.349-18.394s30.661-101.716 126.559-116.505c4.375-.683 7.97 1.08 10.193 3.884z" fill="#e2dfe2"/><path d="m414.697 261.354h-317.399c-47.783 0-86.518-38.736-86.518-86.518h490.436c-.001 47.782-38.737 86.518-86.519 86.518z" fill="#985e33"/><path d="m393.221 420.883-75.831 60.781c-37.981 30.44-91.993 30.44-129.973 0l-75.831-60.781c-32.894-26.365-46.602-69.993-34.686-110.437l32.914-111.749c12.667-43.007 51.419-72.907 95.958-74.479 1.232-.05 2.473-.07 3.715-.07h85.834c1.242 0 2.483.02 3.715.07 44.539 1.572 83.291 31.472 95.958 74.479l32.914 111.749c11.915 40.444-1.793 84.072-34.687 110.437z" fill="#c17d4f"/><path d="m252.404 504.496c-23.001 0-46.001-7.61-64.987-22.83l-75.831-60.781c-32.893-26.366-46.602-69.994-34.686-110.438l32.914-111.749c12.667-43.008 51.419-72.907 95.958-74.48 1.232-.05 2.473-.07 3.715-.07h23.111c-.571 0-1.142.02-1.712.07-20.547 1.572-38.431 31.472-44.279 74.48l-15.19 111.749c-5.497 40.444.831 84.072 16.011 110.437l34.987 60.781c8.761 15.221 19.375 22.831 29.989 22.831z" fill="#985e33"/><path d="m284.214 371.697v-126.539h-63.622v126.539c0 11.332-4.781 22.034-12.873 29.967-7.337 7.192-11.891 17.212-11.891 28.299 0 21.895 17.75 39.645 39.645 39.645h33.859c21.895 0 39.645-17.75 39.645-39.645 0-11.087-4.553-21.107-11.891-28.299-8.091-7.933-12.872-18.636-12.872-29.967z" fill="#a59da5"/><path d="m335.344 376.434c0 32.103-26.025 58.128-58.117 58.128h-49.647c-16.051 0-30.571-6.509-41.095-17.023-10.514-10.524-17.023-25.053-17.023-41.105 0-16.252 6.669-30.941 17.433-41.485 11.866-11.626 18.875-27.317 18.875-43.929v-166.802c1.232-.05 2.473-.07 3.715-.07h85.834c1.242 0 2.483.02 3.715.07v166.802c0 16.612 7.009 32.303 18.875 43.929 5.387 5.267 9.743 11.575 12.757 18.604 3.006 7.02 4.678 14.76 4.678 22.881z" fill="#c3bec6"/><path d="m241.419 434.561h-13.839c-16.051 0-30.571-6.509-41.095-17.023-10.514-10.524-17.023-25.053-17.023-41.105 0-16.252 6.669-30.941 17.433-41.485 11.866-11.625 18.875-27.316 18.875-43.928v-166.802c1.232-.05 2.473-.07 3.715-.07h23.932c-.551 0-1.101.02-1.642.07v166.802c0 16.612-3.104 32.303-8.351 43.928-4.766 10.544-7.71 25.234-7.71 41.485 0 16.052 2.874 30.581 7.53 41.105 4.657 10.515 11.075 17.023 18.175 17.023z" fill="#a59da5"/></g><g><path d="m508.715 174.835c0-4.142-3.358-7.5-7.5-7.5h-112.453c-6.583-10.14-14.828-19.162-24.528-26.791 3.253-22.058 11.722-42.964 25.213-62.203 2.378-3.391 1.557-8.068-1.834-10.447-3.392-2.378-8.068-1.558-10.447 1.834-13.413 19.127-22.306 39.8-26.553 61.592-13.751-7.894-28.909-12.686-44.739-14.165 3.88-9.547 11.282-25.368 23.124-41.716 24.826-34.273 56.459-54.589 94.027-60.383 2.352-.364 3.343 1.141 3.728 2.07.38.92.735 2.672-1.168 4.061-10.98 8.015-21.068 16.812-29.982 26.149-2.86 2.996-2.751 7.743.245 10.604s7.743 2.751 10.604-.245c8.301-8.694 17.714-16.9 27.976-24.39 7.006-5.111 9.493-13.916 6.188-21.909-3.311-8.008-11.306-12.491-19.881-11.163-41.243 6.361-77.27 29.468-104.185 66.825-14.994 20.811-23.219 40.446-26.585 49.588h-75.127c-3.366-9.143-11.591-28.778-26.584-49.589-26.916-37.358-62.941-60.466-104.182-66.827-8.582-1.326-16.571 3.164-19.879 11.17-3.303 7.992-.819 16.796 6.182 21.907 28.044 20.467 62.575 55.524 70.185 107.246-9.696 7.627-17.938 16.646-24.518 26.783h-105.261c-4.142 0-7.5 3.358-7.5 7.5 0 46.183 33.77 85.251 78.428 92.721l-12.007 40.772c-11.21 38.082-1.177 79.58 26.185 108.301 2.858 3 7.605 3.115 10.604.257 2.999-2.857 3.114-7.604.257-10.604-23.676-24.852-32.357-60.763-22.656-93.718l32.91-111.75c5.927-20.122 17.94-37.398 34.74-49.963 13.776-10.303 29.683-16.615 46.529-18.557v158.725c0 14.37-5.904 28.068-16.623 38.57-12.694 12.434-19.685 29.07-19.685 46.843 0 17.521 6.825 34.002 19.222 46.411 2.26 2.258 4.658 4.326 7.17 6.207-.006.306-.027.606-.027.914 0 12.599 4.907 24.438 13.809 33.327 8.897 8.91 20.735 13.816 33.334 13.816h33.865c25.995 0 47.143-21.148 47.143-47.143 0-.32-.022-.632-.028-.951 16.011-11.979 26.394-31.089 26.394-52.581 0-8.953-1.777-17.644-5.283-25.836-3.393-7.913-8.24-14.982-14.401-21.007-10.72-10.503-16.624-24.201-16.624-38.571v-158.723c16.845 1.942 32.752 8.254 46.527 18.556 16.8 12.565 28.813 29.842 34.74 49.963l32.91 111.75c11.097 37.681-1.537 77.903-32.187 102.469l-75.82 60.779c-17.043 13.66-38.458 21.183-60.3 21.183-21.841 0-43.256-7.523-60.299-21.182l-64.95-52.06c-3.233-2.59-7.953-2.069-10.543 1.161-2.591 3.232-2.071 7.953 1.161 10.543l64.95 52.06c19.694 15.785 44.441 24.478 69.68 24.478 25.24 0 49.986-8.693 69.681-24.478l75.82-60.78c35.418-28.388 50.017-74.867 37.193-118.411l-11.743-39.874c21.841-1.982 42.119-11.437 57.828-27.135 17.753-17.763 27.53-41.374 27.53-66.483zm-422.726 78.191c-35.953-5.158-63.916-34.607-67.352-70.69h89.252c-2.056 4.591-3.832 9.338-5.276 14.242zm-6.77-231.835c-1.899-1.387-1.544-3.14-1.164-4.062.384-.93 1.377-2.442 3.729-2.074 37.561 5.792 69.194 26.109 94.02 60.384 11.842 16.35 19.244 32.172 23.124 41.717-15.826 1.479-30.98 6.269-44.728 14.16-10.276-52.958-45.865-88.876-74.981-110.125zm190.117 440.917h-33.865c-8.588 0-16.657-3.344-22.728-9.423-4.178-4.173-7.064-9.295-8.458-14.884 7.347 2.787 15.207 4.26 23.296 4.26h49.646c8.199 0 16.045-1.525 23.287-4.285-3.499 13.961-16.148 24.332-31.178 24.332zm43.331-121.796c4.755 4.649 8.492 10.099 11.105 16.193 2.702 6.312 4.071 13.017 4.071 19.929 0 27.916-22.707 50.627-50.617 50.627h-17.323v-15.816c21.905-3.594 38.674-22.649 38.674-45.556 0-4.142-3.358-7.5-7.5-7.5s-7.5 3.358-7.5 7.5c0 17.189-13.985 31.174-31.174 31.174s-31.174-13.985-31.174-31.174c0-4.142-3.358-7.5-7.5-7.5s-7.5 3.358-7.5 7.5c0 22.906 16.769 41.961 38.674 45.556v15.816h-17.323c-13.511 0-26.223-5.266-35.789-14.823-9.562-9.571-14.828-22.287-14.828-35.804 0-13.708 5.392-26.539 15.182-36.128 13.624-13.348 21.126-30.851 21.126-49.286v-159.374h78.265v159.375c0 18.434 7.503 35.937 21.131 49.291zm106.355-86.585-16.83-57.149c-1.444-4.904-3.22-9.651-5.276-14.242h96.45c-1.708 18.274-9.649 35.231-22.786 48.376-13.907 13.898-32.079 21.972-51.558 23.015z"/><ellipse cx="134.327" cy="281.381" rx="22.754" ry="34.007"/><path d="m392.684 281.381c0-18.751-10.208-34.007-22.754-34.007s-22.754 15.255-22.754 34.007c0 18.751 10.208 34.006 22.754 34.006s22.754-15.255 22.754-34.006z"/></g></g></svg>